<mxfile host="app.diagrams.net" modified="2023-10-27T21:59:47.963Z" agent="Mozilla/5.0 (X11; Linux x86_64) AppleWebKit/537.36 (KHTML, like Gecko) Chrome/116.0.0.0 Safari/537.36" etag="0xguzuVkxoOVow15BZUj" version="22.0.8" type="google">
  <diagram name="Strona-1" id="3uN3iqC2fypJnNS7MGGm">
    <mxGraphModel grid="1" page="1" gridSize="10" guides="1" tooltips="1" connect="1" arrows="1" fold="1" pageScale="1" pageWidth="1000" pageHeight="1300" math="0" shadow="0">
      <root>
        <mxCell id="0" />
        <mxCell id="1" parent="0" />
        <mxCell id="OznYH2TMQEt7XwQIsW9T-1" value="Inventory" style="sketch=0;outlineConnect=0;fontColor=#232F3E;gradientColor=none;strokeColor=#ffffff;fillColor=#232F3E;dashed=0;verticalLabelPosition=middle;verticalAlign=bottom;align=center;html=1;whiteSpace=wrap;fontSize=10;fontStyle=1;spacing=3;shape=mxgraph.aws4.productIcon;prIcon=mxgraph.aws4.dynamodb;" vertex="1" parent="1">
          <mxGeometry x="280" y="160" width="80" height="110" as="geometry" />
        </mxCell>
        <mxCell id="OznYH2TMQEt7XwQIsW9T-2" value="Licenses" style="sketch=0;outlineConnect=0;fontColor=#232F3E;gradientColor=none;strokeColor=#ffffff;fillColor=#232F3E;dashed=0;verticalLabelPosition=middle;verticalAlign=bottom;align=center;html=1;whiteSpace=wrap;fontSize=10;fontStyle=1;spacing=3;shape=mxgraph.aws4.productIcon;prIcon=mxgraph.aws4.dynamodb;" vertex="1" parent="1">
          <mxGeometry x="480" y="160" width="80" height="110" as="geometry" />
        </mxCell>
        <mxCell id="OznYH2TMQEt7XwQIsW9T-4" style="rounded=0;orthogonalLoop=1;jettySize=auto;html=1;exitX=1;exitY=1;exitDx=0;exitDy=0;exitPerimeter=0;" edge="1" parent="1" source="OznYH2TMQEt7XwQIsW9T-3" target="OznYH2TMQEt7XwQIsW9T-1">
          <mxGeometry relative="1" as="geometry" />
        </mxCell>
        <mxCell id="OznYH2TMQEt7XwQIsW9T-5" value="&lt;font color=&quot;#ff0000&quot; style=&quot;font-size: 12px;&quot;&gt;(1)&lt;/font&gt;" style="edgeLabel;html=1;align=center;verticalAlign=middle;resizable=0;points=[];" connectable="0" vertex="1" parent="OznYH2TMQEt7XwQIsW9T-4">
          <mxGeometry x="-0.3036" y="1" relative="1" as="geometry">
            <mxPoint y="23" as="offset" />
          </mxGeometry>
        </mxCell>
        <mxCell id="OznYH2TMQEt7XwQIsW9T-3" value="installer" style="shape=umlActor;verticalLabelPosition=bottom;verticalAlign=top;html=1;outlineConnect=0;" vertex="1" parent="1">
          <mxGeometry x="110" y="50" width="30" height="60" as="geometry" />
        </mxCell>
        <mxCell id="OznYH2TMQEt7XwQIsW9T-6" value="License file generation process" style="sketch=0;outlineConnect=0;fontColor=#232F3E;gradientColor=none;strokeColor=#ffffff;fillColor=#232F3E;dashed=0;verticalLabelPosition=middle;verticalAlign=bottom;align=center;html=1;whiteSpace=wrap;fontSize=10;fontStyle=1;spacing=3;shape=mxgraph.aws4.productIcon;prIcon=mxgraph.aws4.step_functions;" vertex="1" parent="1">
          <mxGeometry x="380" y="360" width="80" height="120" as="geometry" />
        </mxCell>
        <mxCell id="OznYH2TMQEt7XwQIsW9T-10" style="rounded=0;orthogonalLoop=1;jettySize=auto;html=1;exitX=0.75;exitY=0;exitDx=0;exitDy=0;exitPerimeter=0;edgeStyle=orthogonalEdgeStyle;curved=1;" edge="1" parent="1" source="OznYH2TMQEt7XwQIsW9T-9" target="OznYH2TMQEt7XwQIsW9T-6">
          <mxGeometry relative="1" as="geometry">
            <Array as="points">
              <mxPoint x="145" y="410" />
            </Array>
          </mxGeometry>
        </mxCell>
        <mxCell id="OznYH2TMQEt7XwQIsW9T-16" value="&lt;font color=&quot;#ff0000&quot; style=&quot;font-size: 12px;&quot;&gt;(2)&lt;/font&gt;" style="edgeLabel;html=1;align=center;verticalAlign=middle;resizable=0;points=[];" connectable="0" vertex="1" parent="OznYH2TMQEt7XwQIsW9T-10">
          <mxGeometry x="0.0573" y="-37" relative="1" as="geometry">
            <mxPoint x="-13" y="-17" as="offset" />
          </mxGeometry>
        </mxCell>
        <mxCell id="OznYH2TMQEt7XwQIsW9T-23" style="edgeStyle=orthogonalEdgeStyle;rounded=0;orthogonalLoop=1;jettySize=auto;html=1;exitX=0.5;exitY=1;exitDx=0;exitDy=0;exitPerimeter=0;" edge="1" parent="1" source="OznYH2TMQEt7XwQIsW9T-9" target="OznYH2TMQEt7XwQIsW9T-22">
          <mxGeometry relative="1" as="geometry" />
        </mxCell>
        <mxCell id="OznYH2TMQEt7XwQIsW9T-24" value="&lt;font color=&quot;#ff0000&quot; style=&quot;font-size: 12px;&quot;&gt;(6)&lt;/font&gt;" style="edgeLabel;html=1;align=center;verticalAlign=middle;resizable=0;points=[];" connectable="0" vertex="1" parent="OznYH2TMQEt7XwQIsW9T-23">
          <mxGeometry x="0.1475" relative="1" as="geometry">
            <mxPoint x="15" as="offset" />
          </mxGeometry>
        </mxCell>
        <mxCell id="OznYH2TMQEt7XwQIsW9T-9" value="Bash integratio script" style="sketch=0;points=[[0,0,0],[0.25,0,0],[0.5,0,0],[0.75,0,0],[1,0,0],[0,1,0],[0.25,1,0],[0.5,1,0],[0.75,1,0],[1,1,0],[0,0.25,0],[0,0.5,0],[0,0.75,0],[1,0.25,0],[1,0.5,0],[1,0.75,0]];outlineConnect=0;fontColor=#232F3E;fillColor=#C925D1;strokeColor=#ffffff;dashed=0;verticalLabelPosition=bottom;verticalAlign=top;align=center;html=1;fontSize=12;fontStyle=0;aspect=fixed;shape=mxgraph.aws4.resourceIcon;resIcon=mxgraph.aws4.command_line_interface;" vertex="1" parent="1">
          <mxGeometry x="86" y="550" width="78" height="78" as="geometry" />
        </mxCell>
        <mxCell id="OznYH2TMQEt7XwQIsW9T-11" value="" style="endArrow=classic;html=1;rounded=0;" edge="1" parent="1" source="OznYH2TMQEt7XwQIsW9T-1" target="OznYH2TMQEt7XwQIsW9T-6">
          <mxGeometry width="50" height="50" relative="1" as="geometry">
            <mxPoint x="280" y="490" as="sourcePoint" />
            <mxPoint x="330" y="440" as="targetPoint" />
          </mxGeometry>
        </mxCell>
        <mxCell id="OznYH2TMQEt7XwQIsW9T-18" value="&lt;font color=&quot;#ff0000&quot; style=&quot;font-size: 12px;&quot;&gt;(3)&lt;/font&gt;" style="edgeLabel;html=1;align=center;verticalAlign=middle;resizable=0;points=[];" connectable="0" vertex="1" parent="OznYH2TMQEt7XwQIsW9T-11">
          <mxGeometry x="0.1096" y="-2" relative="1" as="geometry">
            <mxPoint x="-20" as="offset" />
          </mxGeometry>
        </mxCell>
        <mxCell id="OznYH2TMQEt7XwQIsW9T-12" value="" style="endArrow=classic;html=1;rounded=0;" edge="1" parent="1" source="OznYH2TMQEt7XwQIsW9T-2" target="OznYH2TMQEt7XwQIsW9T-6">
          <mxGeometry width="50" height="50" relative="1" as="geometry">
            <mxPoint x="357" y="280" as="sourcePoint" />
            <mxPoint x="401" y="370" as="targetPoint" />
          </mxGeometry>
        </mxCell>
        <mxCell id="OznYH2TMQEt7XwQIsW9T-20" value="&lt;font color=&quot;#ff0000&quot; style=&quot;font-size: 12px;&quot;&gt;(4)&lt;/font&gt;" style="edgeLabel;html=1;align=center;verticalAlign=middle;resizable=0;points=[];" connectable="0" vertex="1" parent="OznYH2TMQEt7XwQIsW9T-12">
          <mxGeometry x="0.0387" y="5" relative="1" as="geometry">
            <mxPoint x="15" y="1" as="offset" />
          </mxGeometry>
        </mxCell>
        <mxCell id="OznYH2TMQEt7XwQIsW9T-13" style="rounded=0;orthogonalLoop=1;jettySize=auto;html=1;edgeStyle=orthogonalEdgeStyle;curved=1;entryX=1;entryY=0.25;entryDx=0;entryDy=0;entryPerimeter=0;" edge="1" parent="1" source="OznYH2TMQEt7XwQIsW9T-6" target="OznYH2TMQEt7XwQIsW9T-9">
          <mxGeometry relative="1" as="geometry">
            <mxPoint x="155" y="560" as="sourcePoint" />
            <mxPoint x="390" y="420" as="targetPoint" />
            <Array as="points">
              <mxPoint x="420" y="570" />
            </Array>
          </mxGeometry>
        </mxCell>
        <mxCell id="OznYH2TMQEt7XwQIsW9T-21" value="&lt;font color=&quot;#ff0000&quot; style=&quot;font-size: 12px;&quot;&gt;(5)&lt;/font&gt;" style="edgeLabel;html=1;align=center;verticalAlign=middle;resizable=0;points=[];" connectable="0" vertex="1" parent="OznYH2TMQEt7XwQIsW9T-13">
          <mxGeometry x="-0.0767" y="-16" relative="1" as="geometry">
            <mxPoint x="11" y="7" as="offset" />
          </mxGeometry>
        </mxCell>
        <mxCell id="OznYH2TMQEt7XwQIsW9T-22" value="Execute Salt" style="shape=image;verticalLabelPosition=bottom;verticalAlign=top;imageAspect=0;image=https://www.svgrepo.com/show/374060/saltstack.svg" vertex="1" parent="1">
          <mxGeometry x="75" y="750" width="100" height="100" as="geometry" />
        </mxCell>
      </root>
    </mxGraphModel>
  </diagram>
</mxfile>
